<svg xmlns="http://www.w3.org/2000/svg" xmlns:xlink="http://www.w3.org/1999/xlink" viewBox="0 0 1364 745.54"><defs><style>.cls-1{fill:#fcb1a7;}.cls-2{fill:#ffbdb1;}.cls-12,.cls-25,.cls-29,.cls-3,.cls-4,.cls-5,.cls-6,.cls-7,.cls-8,.cls-9{isolation:isolate;}.cls-4,.cls-5,.cls-6{font-size:47.95px;}.cls-11,.cls-29,.cls-4,.cls-5,.cls-6,.cls-7,.cls-8{fill:#fff;}.cls-4,.cls-5,.cls-6,.cls-7,.cls-8{font-family:BalooBhaina-Regular, Baloo Bhaina;}.cls-4{letter-spacing:-0.01em;}.cls-6{letter-spacing:-0.02em;}.cls-7,.cls-8{font-size:71.93px;}.cls-8{letter-spacing:-0.01em;}.cls-14,.cls-9{fill:#ff8c77;}.cls-12,.cls-17,.cls-29,.cls-9{opacity:0.1;}.cls-10{fill:url(#Degradado_sin_nombre_2);}.cls-13{fill:#cf6f80;}.cls-15{fill:#3f3d56;}.cls-16{fill:#512e4e;}.cls-18{fill:#535461;}.cls-19{fill:#9d9cb5;}.cls-20{fill:none;stroke:#535461;stroke-miterlimit:10;stroke-width:2px;}.cls-21{fill:url(#Degradado_sin_nombre_2-2);}.cls-22{fill:#1d2366;}.cls-23{fill:#ffb0b1;}.cls-24{fill:#c7daf5;}.cls-25{opacity:0.03;}.cls-26{fill:#dce7ff;}.cls-27{fill:#591d4b;}.cls-28{fill:#be8b87;}.cls-30{fill:#efc8c4;}.cls-31{fill:#727a9c;}</style><linearGradient id="Degradado_sin_nombre_2" x1="638.39" y1="1044.5" x2="638.39" y2="1418.06" gradientTransform="matrix(1, 0, 0, -1, 214.8, 1563.71)" gradientUnits="userSpaceOnUse"><stop offset="0" stop-color="gray" stop-opacity="0.25"/><stop offset="0.54" stop-color="gray" stop-opacity="0.12"/><stop offset="1" stop-color="gray" stop-opacity="0.1"/></linearGradient><linearGradient id="Degradado_sin_nombre_2-2" x1="944.01" y1="1048.93" x2="944.01" y2="1389.77" xlink:href="#Degradado_sin_nombre_2"/></defs><title>Recurso 2</title><g id="Capa_2" data-name="Capa 2"><g id="Capa_1-2" data-name="Capa 1"><path class="cls-1" d="M1363.47,637.34c-.55-.52,1.49.82-1-1-2.19-1.6-4.68-3.38-7.46-5.3a.8.8,0,0,1-.21-.15c-58.61-42.16-295.09-182.89-636.45-.8q-6.17,3.28-12.36,6.71c-3,1.66-6,3.33-9,5l-5.17,2.91C306.12,859.91,26.12,662.88,0,643.37V111H1364V637.76l-.16-.13Z"/><path class="cls-2" d="M1356.84,632.25c2.63,1.93,4.84,3.61,6.62,5-2.69,2.52-262.08,242.76-657.3-.56q6.2-3.42,12.36-6.7c331.4-176.67,568.94-45.68,636.29.8l.21.15Z"/><path class="cls-1" d="M1354.81,630.78c-67.35-46.48-304.89-177.47-636.29-.8C1059.8,447.88,1296.22,588.62,1354.81,630.78Z"/><path class="cls-2" d="M1363.48,637.22h0c-2.69,2.52-262.08,242.76-657.3-.56l-1.43-.88"/><rect class="cls-1" width="1364" height="113"/><g class="cls-3"><text class="cls-4" transform="translate(54.03 257.55)">R</text><text class="cls-5" transform="translate(82.51 257.55)">egist</text><text class="cls-6" transform="translate(192.32 257.55)">r</text><text class="cls-5" transform="translate(211.12 257.55)">o de ficha clinica </text><text class="cls-5" transform="translate(54.03 315.09)">de en</text><text class="cls-6" transform="translate(172.33 315.09)">f</text><text class="cls-5" transform="translate(191.89 315.09)">e</text><text class="cls-4" transform="translate(218.22 315.09)">r</text><text class="cls-5" transform="translate(237.45 315.09)">meria</text></g><g class="cls-3"><text class="cls-7" transform="translate(54.02 165.22)">Bie</text><text class="cls-8" transform="translate(158.31 165.22)">n</text><text class="cls-7" transform="translate(199.31 165.22)">v</text><text class="cls-7" transform="translate(238.16 165.22)">enidos</text></g><ellipse class="cls-9" cx="858.8" cy="514.23" rx="55.69" ry="9.51"/><ellipse class="cls-9" cx="1161.5" cy="514.49" rx="69.49" ry="9.51"/><path class="cls-9" d="M656.82,254.21H714.9v84.66H661a9.69,9.69,0,0,0-.43,2H714.9V408.6h0c-1.63-.68-3.24-1.4-4.85-2.17l-1-.47c-1.53-.76-3.05-1.57-4.58-2.43-.53-.29-1.06-.6-1.59-.92a96.24,96.24,0,0,1-22.82-18.93h0c-.93-1-1.79-2-2.63-3l-1.62-2c-1.05-1.36-2.05-2.75-3-4.16-.15-.21-.28-.41-.43-.61A91.61,91.61,0,0,1,662.52,355c-.08-.2-.15-.42-.23-.6q-1.17-3.23-2.09-6.5c-.26-.92-.51-1.83-.73-2.78-.08-.28-.15-.55-.21-.83-3.25-13.46-3.64-27.45-3.64-41.34v-4.86c0-5.62.07-11.28.16-16.93,0-1.46.06-2.92.09-4.39q.12-5.6.34-11.19c0-1,.08-2.07.13-3.1,0-.59,0-1.19.09-1.79C656.56,258.49,656.68,256.35,656.82,254.21Z"/><path class="cls-9" d="M714.9,159.71H683.08A256.79,256.79,0,0,1,700,135c4.73-6.17,9.72-12.18,14.9-18Z"/><path class="cls-9" d="M714.9,163.62v88.62h-58c0-.25,0-.52.06-.77,0-.7.11-1.4.16-2.1s.13-1.64.21-2.44.15-1.77.24-2.65.17-1.78.26-2.66.19-1.77.29-2.65.19-1.77.3-2.64l.27-2.19c.13-1,.27-2.07.42-3.09a3.62,3.62,0,0,1,.06-.46,226.2,226.2,0,0,1,4.27-22.25,166.51,166.51,0,0,1,18-44.69Z"/><path class="cls-9" d="M727.86,254.21v84.66H852V254.21Zm0,86.62v71.92s2.16.31,2.85.44c.95.2,1.9.37,2.86.52a4.89,4.89,0,0,0,.57.08c.38.07.77.12,1.15.18,1,.14,1.9.25,2.85.35.45,0,.91.09,1.37.12l1.1.09h0c.6.05,1.2.09,1.79.11.36,0,.73,0,1.1,1h4.08c.49-1,1.47,0,1.47,0h0s.68-1,1-1.06a1.4,1.4,0,0,0,.29,0c.29,0,.85,1.06.85,1.06h-.51l1.92-.16,1.9-.22,1.31-.17a106.27,106.27,0,0,0,15.71-3.58c11.57-3.47,22.89-8.32,34.46-11.87,15-4.58,31.48-6.83,45.93-1.23V340.83ZM852,161.68V48.9a148.19,148.19,0,0,0-39.72,5c-31,8.26-58.73,26.19-82.53,49.09v58.73h5.56v2h-7.41v88.59H852V163.65H759.35v-2Zm160.1-39.76A49.08,49.08,0,0,1,989.61,115c-13.34-7.72-24-19.63-35.91-29.68A159.54,159.54,0,0,0,866.78,48.6V159.71h176.85l.44-.49Zm15.45-2.33,17.08,19.92V114.37c-5.72.75-10.73,2.54-17.06,5.19Zm18.94,311.81V340.83h-38.12c-.1-.38-.19-.77-.31-1.16.11.39.2.78.3,1.16H866.78V406c1.34,1.06,2.67,2.18,4,3.32h0c1.41,1.21,2.81,2.49,4.22,3.75l1.42,1.25c1,.92,2.05,1.83,3.09,2.62s1.91,1.68,2.9,2.49c.75.68,1.53,1.28,2.29,1.9a283.66,283.66,0,0,0,35.1,24.49c2.75,1.62,5.51,3.2,8.31,4.74,1.86,1,3.73,2,5.61,3q4.24,2.2,8.55,4.26h0a299,299,0,0,0,83.14,25.83q9.55,1.5,19.19,2.37V431.4h1.86ZM866.78,163.65v88.59h177.81V163.65Zm0,90.56v84.66h177.81V254.21Zm192.63-139.95v28.05l21.8-25.43q-10.83-1.86-21.8-2.65Zm-1.85,140v84.63h174.11V254.21ZM1231.67,437.3l.61-96.47H1059.41V486.72s21.64.36,32.81-.2h.2c5.33-.58,15.92-2,15.92-2h.12a279.56,279.56,0,0,0,81.84-23.21m76-193.22c-.65-1.65-1.34-3.28-2-4.9-1.3-3.06-2.68-6-4.09-9h-13.65v84.66H1281c0-24-5.73-48.47-14.71-70.78Zm-19.78,72.73v83.21a119,119,0,0,0,23.66-33.92c7.06-15.48,10.29-32.24,10.55-49.31Zm0-110.48v21.87h12.27a237.69,237.69,0,0,0-12.26-21.9ZM1128.38,130l-2.71-1.09a238.06,238.06,0,0,0-29.33-9.37L1063,158.49h0l-.64.72.43.5h118.74A249.49,249.49,0,0,0,1128.4,130Zm55.86,33.62H1060l-2.44,2.37v86.22h174.11V210.48a254.34,254.34,0,0,0-47.42-46.86Z"/><path class="cls-9" d="M714.9,206.94v43.33H657.68c0-.25,0-.51.05-.76.06-.69.11-1.38.16-2.07s.13-1.62.21-2.4.15-1.75.23-2.62.17-1.76.26-2.63.19-1.74.29-2.61.19-1.74.3-2.61c.08-.72.17-1.44.26-2.16.13-1,.27-2,.42-3a2.32,2.32,0,0,1,.06-.45A220.13,220.13,0,0,1,664.13,207Z"/><path class="cls-9" d="M656.82,254.21H714.9v84.66H661a9.69,9.69,0,0,0-.43,2H714.9V408.6h0c-1.63-.68-3.24-1.4-4.85-2.17l-1-.47c-1.53-.76-3.05-1.57-4.58-2.43-.53-.29-1.06-.6-1.59-.92a96.24,96.24,0,0,1-22.82-18.93h0c-.93-1-1.79-2-2.63-3l-1.62-2c-1.05-1.36-2.05-2.75-3-4.16-.15-.21-.28-.41-.43-.61A91.61,91.61,0,0,1,662.52,355c-.08-.2-.15-.42-.23-.6q-1.17-3.23-2.09-6.5c-.26-.92-.51-1.83-.73-2.78-.08-.28-.15-.55-.21-.83-3.25-13.46-3.64-27.45-3.64-41.34v-4.86c0-5.62.07-11.28.16-16.93,0-1.46.06-2.92.09-4.39q.12-5.6.34-11.19c0-1,.08-2.07.13-3.1,0-.59,0-1.19.09-1.79C656.56,258.49,656.68,256.35,656.82,254.21Z"/><polygon class="cls-9" points="772.32 175.46 772.32 250.27 727.86 250.27 727.86 175.46 735.27 175.46 735.27 149.87 761.2 149.87 761.2 175.46 772.32 175.46"/><rect class="cls-9" x="727.86" y="254.21" width="44.45" height="84.66"/><path class="cls-9" d="M727.82,340.83h44.5v69.62s-10.49,2.76-15.79,3.54l-1.3.17-1.91.22a1.82,1.82,0,0,1-1.91-.7h-.2a18.21,18.21,0,0,1-.84,2h-.29s-.69-1-1-1h0c-.49,0-1.47,1-1.47,1h-4.53l-1.12,0c-.59,0-1.22-.06-1.82-.11h0l-1.12-.08-1.4-.14c-1-.09-2-.21-2.91-.35l-1.17-.17-.58-.09c-1-.16-1.94-.33-2.92-.52-.71-.13-1.43-.29-2.15-.45Z"/><rect class="cls-9" x="1009.4" y="167.59" width="35.19" height="84.66"/><polygon class="cls-9" points="1044.59 254.21 1044.59 338.87 866.78 338.87 866.78 301.46 961.24 301.46 961.24 323.12 1009.4 323.12 1009.4 254.21 1044.59 254.21"/><path class="cls-9" d="M1045.16,431.4h-.57v55.41q-9.61-.88-19.18-2.38a297.93,297.93,0,0,1-83.17-26q-11.46-5.54-22.45-12.08a284.61,284.61,0,0,1-35.1-24.61q-4.19-3.45-8.27-7.05c-1.89-1.67-3.76-3.37-5.65-5-1.32-1.14-2.65-2.26-4-3.34V340.83H1008.3l-.3-1.16c.11.38.21.77.31,1.16h36.28v90.53A5.1,5.1,0,0,1,1045.16,431.4Z"/><path class="cls-9" d="M1139.06,159.71H1115v-7.87h11.11V129.62c.5.36,1.4.72,1.85,1.09v21.13h11.12Z"/><path class="cls-9" d="M1194.62,250.27H1080.77l0,0-.06,0h-21.34V165.62H1065v63h27.78V193.18H1115V163.65h24.08v29.53h22.22v35.44h33.34Z"/><path class="cls-9" d="M1057.56,254.21v84.66h137.06V254.21ZM1231.67,437.3l.19-66.94h-37.24V340.83H1057.56V486.72s23.49.36,34.66-.2h.2c5.33-.58,15.92-2,15.92-2h.12a279.56,279.56,0,0,0,81.84-23.21"/><path class="cls-9" d="M1248.34,340.83h32c-.28,16.83-3.5,33.59-10.55,49.07a125.62,125.62,0,0,1-23.3,33.92V370.36h1.85Z"/><path class="cls-9" d="M1280.47,338.87h-32.13V268h17.38C1274.72,290.34,1280.44,314.86,1280.47,338.87Z"/><rect class="cls-9" x="1026.07" y="191.21" width="18.52" height="25.59"/><rect class="cls-9" x="1026.07" y="246.34" width="18.52" height="5.91"/><rect class="cls-9" x="1026.07" y="254.21" width="18.52" height="17.72"/><rect class="cls-9" x="1026.07" y="301.46" width="18.52" height="25.59"/><rect class="cls-9" x="1026.07" y="356.58" width="18.52" height="25.59"/><path class="cls-9" d="M1044.59,429.39a2.5,2.5,0,0,1,.55,0h-.55v7.87h-18.52V409.74h18.52Z"/><path class="cls-9" d="M1044.59,464.86v20.5q-9.28-.86-18.52-2.36V464.86Z"/><rect class="cls-9" x="866.78" y="336.9" width="83.35" height="1.97"/><rect class="cls-9" x="866.78" y="340.83" width="83.35" height="7.87"/><rect class="cls-9" x="866.78" y="372.33" width="83.35" height="11.81"/><path class="cls-9" d="M948.28,409.74v11.81H884.79q-4.14-3.36-8.17-6.89c-1.86-1.63-3.7-3.3-5.58-4.92Z"/><path class="cls-9" d="M948.28,445.19V457h-6.7q-11.3-5.42-22.14-11.81Z"/><rect class="cls-9" x="1092.75" y="262.08" width="16.67" height="17.72"/><rect class="cls-9" x="740.83" y="181.37" width="16.67" height="17.72"/><rect class="cls-9" x="740.83" y="220.74" width="16.67" height="17.72"/><rect class="cls-9" x="740.83" y="262.08" width="16.67" height="17.72"/><rect class="cls-9" x="740.83" y="301.46" width="16.67" height="17.72"/><rect class="cls-9" x="740.83" y="342.8" width="16.67" height="17.72"/><rect class="cls-9" x="740.83" y="382.18" width="16.67" height="17.72"/><rect class="cls-9" x="1153.88" y="262.08" width="16.67" height="17.72"/><rect class="cls-9" x="1092.75" y="305.4" width="16.67" height="17.72"/><rect class="cls-9" x="1153.88" y="305.4" width="16.67" height="17.72"/><rect class="cls-9" x="1092.75" y="346.74" width="16.67" height="17.72"/><rect class="cls-9" x="1153.88" y="346.74" width="16.67" height="17.72"/><rect class="cls-9" x="1092.75" y="390.05" width="16.67" height="17.72"/><rect class="cls-9" x="1153.88" y="390.05" width="16.67" height="17.72"/><rect class="cls-9" x="1092.75" y="431.4" width="16.67" height="17.72"/><rect class="cls-9" x="1153.88" y="431.4" width="16.67" height="17.72"/><polygon class="cls-9" points="1092.75 485.85 1092.75 474.71 1109.42 474.71 1109.42 484.26 1092.75 485.85"/><path class="cls-9" d="M659.33,230.59v9.84H714.9v-9.84Zm5.56,7.87h-3.71v-7.87h3.71Zm5.55,0h-3.7v-7.87h3.7Zm5.56,0h-3.71v-7.87H676Zm5.56,0h-3.71v-7.87h3.71Zm5.55,0h-3.7v-7.87h3.7Zm5.56,0H689v-7.87h3.7Zm5.56,0h-3.71v-7.87h3.71Zm5.55,0h-3.7v-7.87h3.7Zm5.56,0h-3.7v-7.87h3.7Zm5.56,0h-3.71v-7.87h3.71Z"/><path class="cls-9" d="M659.33,258.15V268H714.9v-9.84Zm5.56,9.84h-3.71v-7.87h3.71Zm5.55,0h-3.7v-7.87h3.7Zm5.56,0h-3.71v-7.87H676Zm5.56,0h-3.71v-7.87h3.71Zm5.55,0h-3.7v-7.87h3.7Zm5.56,0H689v-7.87h3.7Zm5.56,0h-3.71v-7.87h3.71Zm5.55,0h-3.7v-7.87h3.7Zm5.56,0h-3.7v-7.87h3.7Zm5.56,0h-3.71v-7.87h3.71Z"/><path class="cls-9" d="M659.33,287.68v9.84H714.9v-9.84Zm5.56,7.87h-3.71v-7.87h3.71Zm5.55,0h-3.7v-7.87h3.7Zm5.56,0h-3.71v-7.87H676Zm5.56,0h-3.71v-7.87h3.71Zm5.55,0h-3.7v-7.87h3.7Zm5.56,0H689v-7.87h3.7Zm5.56,0h-3.71v-7.87h3.71Zm5.55,0h-3.7v-7.87h3.7Zm5.56,0h-3.7v-7.87h3.7Zm5.56,0h-3.71v-7.87h3.71Z"/><path class="cls-9" d="M659.33,315.24v9.84H714.9v-9.84Zm5.56,9.84h-3.71v-7.87h3.71Zm5.55,0h-3.7v-7.87h3.7Zm5.56,0h-3.71v-7.87H676Zm5.56,0h-3.71v-7.87h3.71Zm5.55,0h-3.7v-7.87h3.7Zm5.56,0H689v-7.87h3.7Zm5.56,0h-3.71v-7.87h3.71Zm5.55,0h-3.7v-7.87h3.7Zm5.56,0h-3.7v-7.87h3.7Zm5.56,0h-3.71v-7.87h3.71Z"/><path class="cls-9" d="M660.46,344.77c.22.93.46,1.86.72,2.77v-2.77h3.71v7.88h-2.65a7.22,7.22,0,0,0,.22,2H714.9v-9.85Zm10,9.85h-3.7v-7.88h3.7Zm5.56,0h-3.71v-7.88H676Zm5.56,0h-3.71v-7.88h3.71Zm5.55,0h-3.7v-7.88h3.7Zm5.56,0H689v-7.88h3.7Zm5.56,0h-3.71v-7.88h3.71Zm5.55,0h-3.7v-7.88h3.7Zm5.56,0h-3.7v-7.88h3.7Zm5.56,0h-3.71v-7.88h3.71Z"/><path class="cls-9" d="M672.29,372.33a5.55,5.55,0,0,0,.43,2H676v4.06c.07.41,1.85,1.21,1.85,1.21V374.3h3.71v7.88h-2.12c.18.87.36,1.08.57,0H714.9v-9.85Zm14.82,9.85h-3.7V374.3h3.7Zm5.56,0H689V374.3h3.7Zm5.56,0h-3.71V374.3h3.71Zm5.55,0h-3.7V374.3h3.7Zm5.56,0h-3.7V374.3h3.7Zm5.56,0h-3.71V374.3h3.71Z"/><path class="cls-9" d="M702.8,401.86c.52.82,1.05,1.11,1,1.42v-1.42h5.56v3.85l1.85.48v-4.33l1.85,2v4.41a16.34,16.34,0,0,1,1.86.1v-6.48Z"/><path class="cls-9" d="M1080,252.24ZM1044.82,431.4Zm-36.73-92c.11.39.2.78.31,1.16h0C1008.3,340.21,1008.21,339.82,1008.09,339.43ZM1080,252.24ZM735.27,161.68v2H761.2v-2ZM1044.82,431.4Zm-36.73-92c.11.39.2.78.31,1.16h0C1008.3,340.21,1008.21,339.82,1008.09,339.43ZM1080,252.24ZM1044.82,431.4Zm-36.73-92c.11.39.2.78.31,1.16h0C1008.3,340.21,1008.21,339.82,1008.09,339.43Z"/><path class="cls-10" d="M914,279.37s-2.27-.34-2.27-3.82-1.63-10-1.63-10h0s-1.41-11.34-3.35-13.14-4.45-12.35-4.45-12.35-.42-5.73-1.3-7-2-4.25-3.78-8.55-9-7.29-9-7.29-13.1-8-16.81-10.6h0a5.73,5.73,0,0,1-.94-.75C869.86,205,867,205,867,205c-.29-2-.58-4.2-.67-6.24a4.86,4.86,0,0,0,0-.66,20.79,20.79,0,0,0,8.78-11.43c.07-.23.13-.47.19-.7a2,2,0,0,0,1.13-1.07,21.45,21.45,0,0,1,.76-2.43,8.76,8.76,0,0,1,2.13-2c1.84-1.64,2.31-4.4,2.22-6.91,0-2-.37-4.09-.24-6.11l0-.51a8.47,8.47,0,0,1,.13-.9c.28-1.51.9-2.93,1.24-4.43a6,6,0,0,0-.42-4.46c-1.19-1.89-3.65-2.27-5.82-2.46-2.45-.22-4.64.07-6.21-2.08a23.55,23.55,0,0,0-2.47-3.14c-.33-.31-3.47-2.33-3.47-2.46a13.32,13.32,0,0,0-9.78-.79c-1.63.49-3.16,1.31-4.82,1.71-3.56.89-7.66-.07-10.68,2.08a13,13,0,0,0-3.64,5q-1.15,2.32-2.35,4.64a31.51,31.51,0,0,0-3.11,7.95,14.71,14.71,0,0,0-.21,1.86v1.14a2.59,2.59,0,0,0,0,.56c0,.17,0,.23,0,.34s0,.38.07.56.1.49.16.73l.09.31c.06.19.12.37.19.56s.07.19.11.29.18.38.27.56.07.15.11.22a6.32,6.32,0,0,0,.49.74c1.12,1.49,2.77,2.44,4,3.83v1.11a21,21,0,0,0,8.87,17c0,.23,0,.47,0,.7a37.58,37.58,0,0,1-.06,5.41,2.35,2.35,0,0,0-1.9-.9,2.55,2.55,0,0,0-.73.07l-.66,0h0v.05c-.65.33-2.2,1.72-3.68,5.68,0,0-4.5,5.39-7.93,5.17s-12.11,5.61-12.11,5.61S808.66,225,806.84,231a85.36,85.36,0,0,1-3.64,9.89l-10.47,22.93h0L790.79,282s1.07,8.09.86,9.32,4.4,12.36,4.4,12.36,15.22,28.42,21.43,29.88l.45-.34a3.79,3.79,0,0,0,.84.34l1.28-1a15.56,15.56,0,0,1-.1,3.2c-.86,2.81.32,21.12,1.82,24.71s1,50.66,1,50.66l-.22,4.16a1.59,1.59,0,0,0,.06.36l-.06,1,.16.08a12.24,12.24,0,0,1-.16,4,47.41,47.41,0,0,0-.75,7s-4.28,29.08-2.25,34.93,3.75,12.24,3.75,12.24,2.15,7.29.11,8.54-7.85,3.33-6.65,6.37c1.08,2.81,5.21,10.33,5.82,11.42l0,.58-.84,9.68a12.63,12.63,0,0,0,1,3.69c.92,2.11,2.71,4.3,6.11,4.06.57,0,1.23-.12,1.87-.21a76.46,76.46,0,0,0,13.89-3.84,5.75,5.75,0,0,1-1.08-.95h0a3.45,3.45,0,0,1-1-2.43c.09-1.76-3-10.16-3.78-12.22-.12-.3-.18-.47-.18-.47s7.07-7.86,5.89-14.83c0,0-7.83-4.86-5.25-7.52s7.18-10.33,7.18-10.33.22-28.64,0-32.92a37.72,37.72,0,0,1,.4-8.88c.09-.45.19-.88.3-1.3a71.84,71.84,0,0,0,10.76.87c1.32,0,2.66,0,4-.09,0,.41,0,.84.06,1.31.29,7.1.85,19.54,1.3,24.16.64,6.63,4.18,24.49,4.18,24.49s-6.75,4.6,1.17,16c0,0,0,4.11-.52,4.71h0a54,54,0,0,0-1.36,5.92c-.33,2.14-.47,4.3.07,5.43,1.29,2.68,9,2.46,9,2.46h0l.19,0a10.6,10.6,0,0,1,8.17,2.62c2.93,2.5,14.06,1.4,20.08.6,2.36-.31,3.94-.6,3.94-.6a2.89,2.89,0,0,0,.08-.88h0c-.07-1.57-1.23-5-9.09-8.1l-7.29-9.68h.14a7.16,7.16,0,0,1,1,0s-2.93-11.24-1.74-12.15-2.38-13.37-2.38-13.37-2-20.89-2.16-22.36a13.63,13.63,0,0,1,.54-3.7l-.54-11.46s-.1-3.81,0-5.05a27.54,27.54,0,0,0-.29-3.51l.74-1.24c2.3-.65,3.76-1.2,3.76-1.2l-.32-39.88c2.37-4.86,2.81-15.52,2.8-23.08,0-4.86-.21-8.46-.21-8.46l3.25-5.58s.75-6.68-.44-8.15a1.46,1.46,0,0,1,.15-1.91,5.11,5.11,0,0,1,.71-.51l-.08-.14a7.51,7.51,0,0,1,.72-.54s-1.15-1.88-.12-2.67c1,.69,1.84,1.21,2.5,1.64-.05.44-.1.69-.1.69l.28-.6,1,.6s5.09-10.67,5-12.24,3.46-8.2,3.46-8.2.43-3.48,2.38-4.94,1.52-12,1.52-12,.54-5.51,1.84-7.75S914,279.37,914,279.37Zm-97.82-4.89.1,2.54-1-1.68Z"/><path class="cls-11" d="M900.05,325l-1.23,5.58s-9.89-5.36-11.67-12.17,3-9.41,3-9.41l9.21,4.15Z"/><path class="cls-12" d="M900.05,325l-1.23,5.58s-9.89-5.36-11.67-12.17,3-9.41,3-9.41l9.21,4.15Z"/><path class="cls-11" d="M844.57,515.18s-9.15,3.57-15.43,4c-3.34.24-5.1-1.94-6-4a12.94,12.94,0,0,1-.94-3.68l.82-9.62.43-5.13,13.36-3.69,1.89,6.15.17.47c.76,2.05,3.81,10.4,3.72,12.14a3.39,3.39,0,0,0,.94,2.4A5,5,0,0,0,844.57,515.18Z"/><path class="cls-11" d="M907,510.3a2.34,2.34,0,0,1-.08.87s-19.55,3.46-23.55,0a10.19,10.19,0,0,0-8.23-2.57s-7.57.22-8.83-2.43c-.53-1.11-.39-3.27-.06-5.39a54,54,0,0,1,1.32-5.9l.3-.25,1.8-1.54,21.08-.66h.16c-.1,4.58,7.16,9.83,7.16,9.83C905.8,505.3,906.93,508.73,907,510.3Z"/><path class="cls-12" d="M907,510.28a2.53,2.53,0,0,1-.08.87s-19.55,3.47-23.55,0a10.18,10.18,0,0,0-8.23-2.56s-7.57.22-8.83-2.43c-.52-1.12-.39-3.27-.06-5.39,2.91.31,7.51,1.08,9.32,2.92,2.73,2.8,7.36,5.59,10.2,5.81C888,509.65,901.31,510.1,907,510.28Z"/><path class="cls-12" d="M844.57,515.18s-9.15,3.57-15.43,4c-3.34.24-5.1-1.94-6-4,2.32.83,5.55,1.71,7.25.91,2-1,9.14-1.56,13.14-1.83A5.72,5.72,0,0,0,844.57,515.18Z"/><path class="cls-13" d="M858.13,227.35c-7.54-3.12-17.24-13.41-14.82-18.23a11.1,11.1,0,0,0,.94-3.86,37,37,0,0,0,.07-5.47,80.34,80.34,0,0,0-1-8.89s23.55.57,22.18,4.25a14.81,14.81,0,0,0-.36,5.06c.11,2.11.4,4.48.7,6.49.41,2.76.82,4.86.82,4.86s-1.44,2.14-2.29,2.26S869,231.79,858.13,227.35Z"/><path class="cls-12" d="M838.86,499.67l-.18.2c-7-9.05-15.56,2.23-15.56,2.23l-.12-.23.43-5.13,13.36-3.69,1.89,6.15Z"/><path class="cls-12" d="M890.94,493.05s-5.15-.11-7.89,2.46-16,.56-15.43,0a2.13,2.13,0,0,0,.3-.92l1.8-1.54,21.07-.66C890.87,492.8,890.94,493.05,890.94,493.05Z"/><path class="cls-14" d="M847.62,422a16.69,16.69,0,0,0-.87,3.11,38,38,0,0,0-.4,8.85c.22,4.25,0,32.74,0,32.74s-4.52,7.6-7,10.28,5.15,7.49,5.15,7.49c1.14,6.92-5.79,14.75-5.79,14.75-7-9.05-15.55,2.23-15.55,2.23s-4.63-8.5-5.79-11.54,4.53-5.14,6.52-6.37-.1-8.5-.1-8.5-1.68-6.38-3.68-12.19,2.2-34.75,2.2-34.75a47.65,47.65,0,0,1,.74-6.93,12.4,12.4,0,0,0,.15-3.94c0-.44-.07-.81-.1-1.06s0-.36,0-.36l.08-.15L826,410S849,418.41,847.62,422Z"/><path class="cls-14" d="M890.94,492.38s-5.15-.11-7.89,2.43-16,.56-15.43,0,.53-4.69.53-4.69c-7.78-11.29-1.15-15.87-1.15-15.87s-3.47-17.77-4.1-24.36c-.44-4.6-1-17-1.27-24-.13-3-.2-5.13-.2-5.13l6.35-1.36.82-.17,15.32-3.27s.43,3,.71,5.52a24.48,24.48,0,0,1,.24,3.2c-.1,1.22,0,5,0,5l.52,11.4a13.93,13.93,0,0,0-.52,3.69C885,446.2,887,467,887,467s3.47,12.4,2.29,13.29S890.94,492.38,890.94,492.38Z"/><path class="cls-12" d="M865.49,195.15a14.81,14.81,0,0,0-.36,5.06,18.6,18.6,0,0,1-20.81-.41,80.52,80.52,0,0,0-1-8.9S866.86,191.45,865.49,195.15Z"/><path class="cls-13" d="M874.39,181.37a21.56,21.56,0,0,1-1,6.44c-4.29,14-21.2,19.83-32.94,7.95a19.13,19.13,0,0,1-5.2-13.45v-1.72c0-8.08,4.44-15.57,11.47-18.62,13.94-6.06,27.41,4.54,27.64,18.69v.71Z"/><path class="cls-12" d="M858.13,227.35c-7.54-3.12-17.24-13.41-14.82-18.23a11.1,11.1,0,0,0,.94-3.86l10.33,9,6.39,5.57,4.86-13.14c.41,2.75.82,4.86.82,4.86s-1.44,2.14-2.29,2.26S869,231.79,858.13,227.35Z"/><polygon class="cls-14" points="884.84 267.21 876.22 421.2 864.97 421.98 835.85 332.69 840.62 226.69 841.63 204.3 854.58 215.6 860.97 221.17 865.97 207.64 875.27 216.26 884.84 267.21"/><path class="cls-12" d="M847.62,422a16.69,16.69,0,0,0-.87,3.11,79.27,79.27,0,0,1-23.58-7.83l-.15-.08.05-1,0-.51L826,410S849,418.41,847.62,422Z"/><path class="cls-12" d="M867.91,425.12a55.89,55.89,0,0,1-6.32.76c-.12-3-.2-5.13-.2-5.13l6.36-1.36Z"/><path class="cls-12" d="M884.6,421.47c-4.06,1.13-10.34,2.39-16,1.6l-.08-3.85L883.89,416S884.31,419,884.6,421.47Z"/><path class="cls-12" d="M868.54,423.77c-23.43,4.26-44.89-7.94-44.89-7.94l.21-4.13s.53-46.82-1-50.41-2.62-21.8-1.79-24.59-3-44.7-3-44.7l-.63-17-23-9.9,10.29-22.79a87.56,87.56,0,0,0,3.58-9.84c1.78-5.92,10.09-11.73,10.09-11.73s8.51-5.81,11.88-5.59,7.78-5.14,7.78-5.14c3.25-8.83,6.2-4.83,6.2-4.83a8.42,8.42,0,0,1-.16,1.31c-1.14,9.68,18.49,40.3,18.77,40.84h0l1.86,48.39,1.9,61.23Z"/><path class="cls-11" d="M867.91,423.77C844.48,428,823,415.83,823,415.83l.21-4.13s.53-46.82-1-50.41-2.63-21.8-1.78-24.59-3-44.7-3-44.7l-.64-17-23-9.94,10.28-22.79a86.85,86.85,0,0,0,3.58-9.84c1.78-5.92,10.09-11.73,10.09-11.73s8.52-5.81,11.88-5.59,7.78-5.14,7.78-5.14c3.26-8.82,6.85-4.83,6.85-4.83,0,.42-.34.61-.16,1.31,2.52,9.4,17.86,40.3,18.14,40.84h0l1.89,48.39L866,356.91Z"/><path class="cls-12" d="M862.28,248.66c-2.53-1.12-15.88-17.32-15.88-17.32v-3.68c-.48-1.22-3.37-.48-5.71.37l1-22.39,1.14,1C845.34,216,862,248.12,862.28,248.66Z"/><path class="cls-11" d="M862.28,247.32C859.75,246.2,846.4,230,846.4,230v-3.68c-.48-1.22-3.37-.48-5.71.37l1-22.39,1.14,1C845.35,214.69,862,246.79,862.28,247.32Z"/><path class="cls-12" d="M823.65,328.11c.31,0,16.29-1.78,16.29-1.78s9.68,20.22,9,25.14-1.78,9.28-5.67,8.5-20.95.61-20.95.61Z"/><path class="cls-11" d="M823,326.77c.31,0,16.29-1.78,16.29-1.78s9.67,20.22,9,25.14-1.79,9.27-5.68,8.5-20.94.61-20.94.61Z"/><path class="cls-13" d="M835.06,317.28s14.66,8.37,15,10.93-7.47-1.12-9.15-1.56a20.14,20.14,0,0,0-3.36-.56l-11.21.32Z"/><ellipse class="cls-12" cx="857.5" cy="248.07" rx="1.54" ry="1.64"/><ellipse class="cls-15" cx="857.5" cy="247.4" rx="1.54" ry="1.64"/><ellipse class="cls-12" cx="860.35" cy="319.06" rx="1.54" ry="1.64"/><ellipse class="cls-15" cx="860.35" cy="318.39" rx="1.54" ry="1.64"/><ellipse class="cls-12" cx="859.04" cy="283.57" rx="1.54" ry="1.64"/><ellipse class="cls-15" cx="859.04" cy="282.9" rx="1.54" ry="1.64"/><path class="cls-11" d="M893.78,325.75s1.05,1.68,0,2.46.1,2.68.1,2.68-2.62,1.63-1.47,3.1.42,8.11.42,8.11l-3.15,5.56s.19,3.57.2,8.41c0,7.54-.42,18.15-2.73,23l.32,39.68s-11,4.28-20.29,3l-1.37-63.66s2-36.1,2.74-43a76.87,76.87,0,0,0,.52-10.84s-.31-10.83-1.37-15.86c0,0-1.14-21.79-1.26-27.82-.05-2.89.09-11.31.25-19.31.18-8.76.38-17,.38-17L865,206.63s2.08-.22,2.71.67a6.47,6.47,0,0,0,.91.75h0c3.61,2.59,16.33,10.54,16.33,10.54s7,3,8.72,7.25,2.86,7.28,3.68,8.5,1.26,6.92,1.26,6.92,2.42,10.51,4.32,12.29,3.27,13.1,3.27,13.1l-16.72,14s-1.46,23.24-1.78,24.14S893.78,325.75,893.78,325.75Z"/><path class="cls-11" d="M895.62,325.75s1,1.68,0,2.46.1,2.68.1,2.68-2.6,1.65-1.46,3.12.42,8.11.42,8.11l-3.15,5.55s.19,3.58.2,8.42c0,7.54-.41,18.15-2.72,23l.31,39.67s-11.06,4.29-20.3,3l-1.36-63.66s2-36.1,2.73-43a75.47,75.47,0,0,0,.52-10.84s-.31-10.84-1.36-15.87c0,0-1.15-21.78-1.27-27.82,0-2.88.1-11.3.26-19.31.17-8.75.37-17,.37-17l-2.75-17.78s2.75,0,3.39.9a6,6,0,0,0,.91.75h0c3.6,2.59,16.33,10.54,16.33,10.54s7,3,8.72,7.24,2.86,7.29,3.68,8.51,1.26,6.92,1.26,6.92,2.42,10.51,4.31,12.29S908,266.65,908,266.65l-16.72,14s-1.47,23.24-1.79,24.14S895.62,325.75,895.62,325.75Z"/><path class="cls-12" d="M875.23,229.35l1.51,4.68-8,8.5c.18-8.74.38-17,.38-17l-2.76-17.78s2.76,0,3.39.9a5.43,5.43,0,0,0,.92.74h0l6.75,20.72Z"/><path class="cls-11" d="M874.59,228l1.52,4.68-8,8.5c.18-8.75.38-17,.38-17l-2.76-17.78s2.76,0,3.39.91a6.47,6.47,0,0,0,.91.75h0l6.76,20.7Z"/><path class="cls-12" d="M874.39,181.37a21.56,21.56,0,0,1-1,6.44.74.74,0,0,1-.61-.16c-.15-5.47-2.68-10.6-5.8-15a15,15,0,0,0-3.14-3.46,5.87,5.87,0,0,0-4.27-1.28c-1.71.25-3.22,1.48-5,1.64-2.28.2-4.33-1.48-6.6-1.56a6.32,6.32,0,0,0-4.85,2.39,14.39,14.39,0,0,0-2.6,5.13,31.45,31.45,0,0,0-1.45,8.84c0,1.7-.18,3.83-1.67,4.45a9.46,9.46,0,0,0-2.15-6.93l0,0v-.27c0-10.2,6.67-19.35,16.13-21.06,12.14-2.21,22.78,7.56,23,20.12v.71Z"/><path class="cls-16" d="M863.14,148.73a12.7,12.7,0,0,0-9.5-.79c-1.58.5-3.07,1.3-4.68,1.71-3.43.88-7.43-.07-10.37,2.06a13,13,0,0,0-3.53,5l-2.29,4.63a31,31,0,0,0-3,7.89,10.64,10.64,0,0,0,1.45,8.16c1.22,1.63,3,2.66,4.32,4.19a9.51,9.51,0,0,1,2.15,6.93c1.49-.61,1.63-2.75,1.67-4.45a31.45,31.45,0,0,1,1.45-8.84,14.47,14.47,0,0,1,2.6-5.13,6.35,6.35,0,0,1,4.85-2.39c2.29.08,4.34,1.76,6.6,1.56,1.72-.15,3.24-1.4,5-1.64a5.9,5.9,0,0,1,4.27,1.28,15.22,15.22,0,0,1,3.13,3.46c3.12,4.37,5.65,9.49,5.8,15,.65.5,1.58-.15,1.9-.93a22,22,0,0,1,.74-2.43,8.36,8.36,0,0,1,2.07-1.95c1.78-1.64,2.23-4.39,2.16-6.89s-.53-5-.08-7.48c.27-1.51.87-2.92,1.2-4.4a6.13,6.13,0,0,0-.41-4.45c-1.14-1.88-3.55-2.25-5.64-2.42-2.39-.22-4.52.06-6-2.08a23.51,23.51,0,0,0-2.4-3.12C866.2,150.87,863.14,148.86,863.14,148.73Z"/><path class="cls-12" d="M801,276.82l-6-11.73-1.89,18.11s1.05,8,.84,9.27,4.31,12.29,4.31,12.29,14.93,28.27,21,29.73l20.6-15.65-5.46-7.37s-1.89-.79-2.37,0c0,0-10.14-18.56-11.19-19.9s-.85-4-.85-4-1.58-1.79-1.05-3.46-3-7.49-3-7.49l3.26-3.24Z"/><path class="cls-11" d="M795.37,263.75l-1.58,1.34L791.9,283.2s1.05,8,.84,9.27,4.31,12.29,4.31,12.29,14.93,28.27,21,29.73l20.61-15.65-5.47-7.37s-1.9-.79-2.37,0c0,0-10.14-18.56-11.2-19.9s-.84-4-.84-4-1.57-1.79-1-3.46-3-7.49-3-7.49l3.26-3.24Z"/><path class="cls-12" d="M893.25,334.69c1.14,1.47.42,8.1.42,8.1l-3.16,5.55s.19,3.59.2,8.42l-5.3,1.76a3.12,3.12,0,0,1-3.94-2.2,3.44,3.44,0,0,1-.15-1.1l.92-31.35,12.37,5c-1.05.78.1,2.68.1,2.68S892.09,333.21,893.25,334.69Z"/><path class="cls-11" d="M893.88,334c1.14,1.48.42,8.11.42,8.11l-3.15,5.55s.19,3.58.2,8.42l-5.4,1.79a3.06,3.06,0,0,1-3.86-2.16,3.54,3.54,0,0,1-.14-1.07l.92-31.45,12.38,5c-1.06.78.1,2.68.1,2.68S892.74,332.54,893.88,334Z"/><path class="cls-13" d="M898,319.07s-.84,5.7-3,6-3,9.22-5.14,8.91-.71-8.27-.63-9.81-2.29-7.93-.52-9.39,7.35,0,7.35,0Z"/><path class="cls-12" d="M902.45,275.15l4-8.51s1.58,6.48,1.58,9.95,2.2,3.8,2.2,3.8,2.42,3,1.14,5.25-1.78,7.71-1.78,7.71.41,10.5-1.48,12-2.28,4.92-2.28,4.92-3.48,6.59-3.37,8.15-4.84,12.18-4.84,12.18,2.42-13.18-11.67-18.88c0,0-.1-4.48,1-5.71s2.69-1.78,1.66-8-.3-13.62-.3-15.1,3.16-10.77,3.16-10.77Z"/><path class="cls-11" d="M904.17,265.43l3.46,1.21s1.58,6.48,1.58,9.95,2.21,3.8,2.21,3.8,2.42,3,1.14,5.25-1.78,7.71-1.78,7.71.42,10.5-1.48,12-2.31,4.92-2.31,4.92-3.47,6.59-3.36,8.15-4.84,12.18-4.84,12.18,2.42-13.18-11.67-18.88c0,0-.1-4.48,1-5.71s2.69-1.78,1.66-8-.3-13.62-.3-15.1,3.16-10.77,3.16-10.77Z"/><path class="cls-12" d="M827.67,485.85s5.52-3.69,9.15-1S827.67,485.85,827.67,485.85Z"/><path class="cls-12" d="M870.57,474.45a10.79,10.79,0,0,1,9,4C883.66,483.17,870.57,474.45,870.57,474.45Z"/><g class="cls-17"><path d="M877.57,180.68c-.7.65-1.6,1.11-2.07,2a22.87,22.87,0,0,0-.73,2.43c-.32.79-1.25,1.43-1.9.93-.15-5.46-2.69-10.6-5.8-15a15,15,0,0,0-3.14-3.46,5.88,5.88,0,0,0-4.27-1.29c-1.71.25-3.22,1.49-4.95,1.64-2.29.21-4.34-1.47-6.61-1.56a6.33,6.33,0,0,0-4.84,2.4,14.27,14.27,0,0,0-2.6,5.12,32,32,0,0,0-1.46,8.85c0,1.69-.18,3.81-1.65,4.44a10.14,10.14,0,0,1,0,1.35c1.48-.61,1.63-2.75,1.67-4.45a31.45,31.45,0,0,1,1.45-8.84,14.23,14.23,0,0,1,2.6-5.13,6.32,6.32,0,0,1,4.84-2.39c2.29.08,4.35,1.76,6.61,1.56,1.71-.15,3.23-1.4,4.95-1.64a5.83,5.83,0,0,1,4.27,1.28,15,15,0,0,1,3.14,3.46c3.12,4.37,5.65,9.49,5.8,15,.65.5,1.58-.15,1.9-.93a24.37,24.37,0,0,1,.73-2.43c.47-.86,1.37-1.31,2.07-2,1.79-1.63,2.23-4.38,2.17-6.88v-.23C879.64,177.08,879.09,179.29,877.57,180.68Z"/><path d="M835.53,180.25c-1.31-1.53-3.11-2.56-4.31-4.19a9.22,9.22,0,0,1-1.67-5,9.74,9.74,0,0,0,1.67,6.31c1.2,1.63,3,2.66,4.31,4.2a9.43,9.43,0,0,1,2.16,5.41A9.53,9.53,0,0,0,835.53,180.25Z"/><path d="M881,161.92c-.33,1.48-.93,2.9-1.21,4.4a14.7,14.7,0,0,0-.17,3,11.14,11.14,0,0,1,.17-1.73c.28-1.51.88-2.91,1.21-4.4a7.89,7.89,0,0,0,.19-2.52A8.23,8.23,0,0,1,881,161.92Z"/></g><ellipse class="cls-9" cx="724.7" cy="501.04" rx="55.69" ry="9.51"/><rect class="cls-18" x="722.31" y="319.18" width="3.7" height="86.62"/><path class="cls-15" d="M749,403.74l-.22,3.86-.32,5.46-.14,2.27-.31,5.46-.14,2.27-.32,5.46-3.6,61.94a10.16,10.16,0,0,1-9.86,9.84H715.32a10.15,10.15,0,0,1-9.85-9.84l-3.59-62-.32-5.46-.13-2.27-.32-5.46L701,413l-.32-5.46-.23-3.86a5.35,5.35,0,0,1,4.84-5.76h38.67A5.27,5.27,0,0,1,749,403.4C749,403.51,749,403.63,749,403.74Z"/><polygon class="cls-19" points="750.81 407.77 750.47 413.68 698.94 413.68 698.59 407.77 750.81 407.77"/><polygon class="cls-19" points="750.29 415.65 749.96 421.55 699.46 421.55 699.11 415.65 750.29 415.65"/><polygon class="cls-19" points="749.83 423.52 749.49 429.43 699.92 429.43 699.57 423.52 749.83 423.52"/><path class="cls-14" d="M695.14,351.07c20.87,16.05,29.58,41.15,29.58,41.15s-25.15-.92-46-17-29.56-41.14-29.56-41.14S674.27,335,695.14,351.07Z"/><path class="cls-20" d="M649.12,334.11s26.11,15.4,34.48,28.15,41.12,30,41.12,30"/><path class="cls-14" d="M708.61,318.74c11.36,8.73,16.11,22.39,16.11,22.39s-13.69-.5-25.05-9.22-16.1-22.4-16.1-22.4S697.25,310,708.61,318.74Z"/><path class="cls-20" d="M683.57,309.51s14.21,8.38,18.76,15.32,22.39,16.3,22.39,16.3"/><path class="cls-14" d="M741.21,340.44c-13.05,15.24-15.81,35.16-15.81,35.16s18.4-4.8,31.43-20.05,15.81-35.16,15.81-35.16S754.25,325.2,741.21,340.44Z"/><path class="cls-20" d="M772.65,320.4s-17,15.62-21.32,26.39S725.4,375.6,725.4,375.6"/><path class="cls-21" d="M1219,335.92s-9.36-49.89-5.78-56.1c0,0,.13-5.77-.08-13.13v-.84a17.22,17.22,0,0,0,2,1.21,15,15,0,0,0,10.72,1.48l-2.84-3.38a5.63,5.63,0,0,1-1.53-2.75,6.12,6.12,0,0,1,.61-3c2.69-7.29,2.83-16.45-2.35-22-4.38-4.67-5.45-10.71-10.21-15-3.47-3.13-5.38-7.72-7.18-12.15a71.91,71.91,0,0,1-3.94-11.5c-.68-3.1-1-6.32-1.88-9.35s-2.69-6-5.43-7.33a19.86,19.86,0,0,1-2.95-1.39,13.64,13.64,0,0,1-2.71-3.42c-4.29-6.08-18.66-2.5-25.46,0a14,14,0,0,0-5,3l.06-.11.17-.28a9.53,9.53,0,0,0-1.91,2.28c-1,1.68-1.4,3.65-2.23,5.47-1,2.16-6.55,8.18-4.16,10.6a2.22,2.22,0,0,0,.57.39,4.59,4.59,0,0,0,2.83.3l-.1.26a18.85,18.85,0,0,0-1.23,6.74c0,10,7.68,18.07,17.16,18.07a16.3,16.3,0,0,0,5.26-.87c0,.23.07.46.11.69a2.36,2.36,0,0,0,0,.28h0l-.3.45a.56.56,0,0,0,0-.08l-8.9,13.32c-1.36,1-9.2,7.11-9.64,11.66-.46,5-.93,10.83-.93,10.83l-.06,1.25a3.36,3.36,0,0,1-2.83.82c-2.78-.49-2.78,10.93-2.78,10.93s-1.85,1.82-3.12.24-4.62,3.78-4.62,3.78l-21,1h0l-.48,0-1.14-3.76a1.46,1.46,0,0,0-1.85-1l-.26.12-.07.05-.15.11-.08.07-.11.13-.07.08,0,0h0a1.63,1.63,0,0,0-.21,1.36l1,3.23c-4.06.87-8.21,3.34-4.82,10.13l-17.16-3.4,5.55,5,28.65,6.33c-.38.73-.13,1.79,1,3.27,5.11,6.43,14.4,8.17,18.14,8.62a35,35,0,0,0,3.68,6.68l-.32,6.4s-9.47,48.75-11.21,51.22a27.88,27.88,0,0,0,2.4-3.38c-2.75,10-6.59,23.72-7.6,25.78-1.62,3.28-3.12,16.55-1.28,17.4.57.26,2.19.13,4.5-.05v-.06l-.1,41.67s.46,25.55-.79,28-1.59,7.54-1.59,7.54-5,10.08-9,14.13l-.09.08-.12-.94s-4.78,6.57-15.34,6.2c0,0-6.36,4.51,3.07,4.75s21.47-.37,21.47-.37,8.41-14,15.45-12.14v10.58h3.7V501.36a9.67,9.67,0,0,0,4-6.34,8,8,0,0,0-2.59-7.13,4.63,4.63,0,0,1-1.41-3.32l-.08.07c0-.21-.06-.43-.08-.66-.63-5.46-1.43-16.74,1.38-25.09,3.85-11.44,5-27.38,2.22-36.87a88.15,88.15,0,0,1-2.23-9.24c-.07-.4-.13-.77-.19-1.12a42.66,42.66,0,0,1,5.69,1.21c6.49,1.9,20.71,2.25,32.85,2.15l0,0a43,43,0,0,0,1.43,8.67c1.52,4.86,2.22,26.28,2.22,26.28s2,17.62.9,24.79c-.58,4-1.15,8-1.48,12V487s-3.27,9.91-5.66,15.28l-.18.41a7.08,7.08,0,0,0-1.87.44s-3.21,6.8-6.4,7.93-2.14,4.83,5.1,3.47,18.16-2.47,18.16-2.47l.47-6.95,2.23-3-.58,6.93,2.37-.5-.32-8.42,3.64-4.84s4.4-4.16-2.14-12.34v.48s-1.19-.24-1.85-.35v0c-.48-1.75-1.32-5,.23-10.8,2.8-10.46,4.43-20,4.43-20L1211,415.65h-.73a21.19,21.19,0,0,1-1.61-5.35c0-.22-.07-.44-.1-.67,5.51-.34,10.93-1.41,15.34-3.72C1223.87,405.88,1221.21,345.53,1219,335.92ZM1150.17,293v.12l-1.14.06Zm-4.54.58a1.18,1.18,0,0,0-.51.26,5.67,5.67,0,0,0-.9,2.5l-1.78-.43s-1.25-.28-3-.61l-.85-.91C1140.88,294.17,1143.31,293.86,1145.63,293.56Z"/><polygon class="cls-22" points="1204.63 500.18 1203.95 508.79 1206.23 508.3 1205.88 498.97 1204.63 500.18"/><path class="cls-23" d="M1152.61,459.31c-2.75,8.33-2,19.56-1.36,25,.23,2,.44,3.25.44,3.25s-4.11,9.95-4.45,10.32-12.09,8-12.09,8l-8.22,5.1s-8.33-3.88-4.33-5.22a6.1,6.1,0,0,0,2.15-1.56c4-4,9-14.08,9-14.08s.35-5.1,1.6-7.52.8-27.89,0-27.89l1.86-41.52v-5.43h14.69a39.52,39.52,0,0,0,.68,5.6,86.79,86.79,0,0,0,2.17,9.21C1157.51,432.05,1156.37,447.91,1152.61,459.31Z"/><path class="cls-12" d="M1151.69,487.57s-4.11,9.95-4.45,10.32-12.09,8-12.09,8l-8.22,5.1s-8.33-3.88-4.33-5.22a6.1,6.1,0,0,0,2.15-1.56l.36,2.65,2.73-.12,23.43-22.41C1151.48,486.34,1151.69,487.57,1151.69,487.57Z"/><path class="cls-22" d="M1151.41,484.9l-23.57,22.56-2.73.12-.58-4.25s-4.79,6.55-15.43,6.18c0,0-6.39,4.49,3.08,4.73s21.57-.36,21.57-.36,8.44-14,16.42-12.15v10.38H1152V501.63a12,12,0,0,0,3.27-6.31,8,8,0,0,0-2.52-7.1A4.66,4.66,0,0,1,1151.41,484.9Z"/><path class="cls-23" d="M1207.22,473.17c-1.6,6.09-.73,9.51.37,11.35v0a21.7,21.7,0,0,1,2.88,7.47l.1.57-11.3,17.52-6.14,2.56s-9.86-3.58-8.06-4.61c.46-.25,1.16-1.58,2-3.42,2.41-5.53,5.73-15.75,5.73-15.75V488a44.53,44.53,0,0,1,1.29-10.54c1.58-6.5-.69-27.25-.69-27.25s-.72-22.49-2.29-27.61a43.8,43.8,0,0,1-1.4-8c-.33-3.2-.4-5.84-.4-5.84s6.49-9.6,18.39.77a13.19,13.19,0,0,1,2.49,2.87c8.22,12.43,1.6,39.82,1.6,39.82S1210.11,462.18,1207.22,473.17Z"/><path class="cls-12" d="M1210,490.72l-10.72,16.62-5.82,2.43s-9.36-3.4-7.65-4.37c.43-.24,1.1-1.5,1.87-3.24,4,0,6,4,6,4l5-.85s6.61-13.83,8.1-14.67.23-6.31-1.06-6.31v-1.39a15,15,0,0,1,1.85.15v0a36,36,0,0,1,2.29,7.08Z"/><path class="cls-22" d="M1194.25,506.49s-2.86-5.58-8.34-3.52c0,0-3.08,6.68-6.16,7.76s-2,4.73,4.91,3.4,17.46-2.43,17.46-2.43l.45-6.8,7.08-9.58s4.22-4.06-2.06-12.06v1.39s1.26,5.47-.23,6.31-8.08,14.68-8.08,14.68Z"/><path class="cls-12" d="M1151,407.89a38.57,38.57,0,0,0,.68,5.47,67.6,67.6,0,0,0-16.33-.18v-5.41Z"/><path class="cls-12" d="M1210.22,416.14s-9.14.47-20,.57c-.3-3-.37-5.54-.37-5.54s6.16-9.11,17.45.73a12.83,12.83,0,0,1,2.36,2.72C1209.79,415.14,1210,415.64,1210.22,416.14Z"/><path class="cls-22" d="M1210.22,415s-40,2.06-52.25-1.57-24.31-.49-26.13-1.33-.35-14.07,1.25-17.35,10.38-36.38,10.38-36.38l8.45-46.81,8.9-2.61.63-.19,15.5-4.54,11.36-3.33s22.59,93.74,20.66,100.65a18.8,18.8,0,0,0-.34,8.14A21.21,21.21,0,0,0,1210.22,415Z"/><path class="cls-24" d="M1122.48,279.59s-8,9.11-2,14.19,10,.48,10,.48Z"/><path class="cls-12" d="M1122.48,279.59s-8,9.11-2,14.19,10,.48,10,.48Z"/><path class="cls-23" d="M1187.12,219.68s-.94.95-2.35,2.35c-2,2-5,4.92-7.63,7.36-3.66,3.39-6.68,5.87-5.6,3.75s.88-5.81.34-9.27c0-.23-.07-.46-.11-.68a68.27,68.27,0,0,0-1.77-7.51s5.91-8.12,9.18-11.32c1.22-1.21,2.07-1.71,2.12-.87a29.91,29.91,0,0,0,1.85,6.31l.09.25c.67,1.82,1.41,3.69,2.07,5.31C1186.32,217.84,1187.12,219.68,1187.12,219.68Z"/><path class="cls-12" d="M1183.24,210.05a17.71,17.71,0,0,1-11.36,13.82,65.22,65.22,0,0,0-1.88-8.19s11.13-15.28,11.3-12.19A30.33,30.33,0,0,0,1183.24,210.05Z"/><path class="cls-12" d="M1170.77,228l1.44-2.16s1,6.18,4.47,3.46,3.68,20.52,3.68,20.52l-3.77,59.85-27.21-1.73.77-28.92,3.08-14.58,7.62-21.19,4.53-7Z"/><path class="cls-22" d="M1180.36,250.15l-3.43,54.12-.36,5.73-15.18-1-.57,0-11.43-.73.77-28.93,3.09-14.57,7.61-21.2,4.54-7,5.39-8.28,1.44-2.15s1,6.18,4.46,3.46l.08-.06h0C1180.2,227.23,1180.36,250.15,1180.36,250.15Z"/><path class="cls-11" d="M1153.63,259.7s-1.37,3-4.11,2.54-2.74,10.94-2.74,10.94-1.82,1.82-3.08.24-4.57,3.76-4.57,3.76l-20.77,1s9.24,4.49,7.43,18.07c0,0,31.38-2.06,32.4-5.21S1153.63,259.7,1153.63,259.7Z"/><path class="cls-25" d="M1153.63,259.7s-1.37,3-4.11,2.54-2.74,10.94-2.74,10.94-1.82,1.82-3.08.24-4.57,3.76-4.57,3.76l-20.77,1s9.24,4.49,7.43,18.07c0,0,31.38-2.06,32.4-5.21S1153.63,259.7,1153.63,259.7Z"/><polygon class="cls-11" points="1093.27 285.29 1098.75 290.26 1143.82 300.32 1138.23 294.26 1093.27 285.29"/><path class="cls-11" d="M1170.86,229.87c-.75,1.21-2.89,7.43-4.68,12.86-1.49,4.53-2.74,8.51-2.74,8.51s-2.91,20.13-4.39,23.77-.68,17.83-.68,17.83l-5.54,35s-2.51,18.07-6.39,28.86c-3.82,10.63-8.08,15.61-8.21,15.77,1.72-2.47,11.06-51,11.06-51l3.09-61.24s.45-5.82.91-10.79,9.71-11.77,9.71-11.77l8.93-13.49C1172.82,225.46,1172.22,227.69,1170.86,229.87Z"/><path class="cls-23" d="M1147.58,308.57s-13.14-.6-19.51-8.73,14.72-3.24,14.72-3.24l5.48,1.33Z"/><path class="cls-12" d="M1209,401.59a18.75,18.75,0,0,0-.34,8.13c-14.33,1.08-29.67-3-29.67-3-2.86,2.79-10.39,6.91-10.39,6.91l-4.1-54.06c-2.62-7.29-3.65-45.48-3.65-45.48s.23-2,.57-5a.58.58,0,0,1,0-.23c1-8.36,3-24.07,4-26.19,1.38-2.91-4.21-10.67-4.21-10.67l2.54-23.05.31-2.78c5.36-2.55,9.47-10.67,9.47-10.67l3.15-5.88h0c3.43-2.34,3.61,20.58,3.61,20.58l-3.43,54.12,11.36-3.34S1210.9,394.68,1209,401.59Z"/><path class="cls-11" d="M1223.68,405.33c-15.63,8.24-44,.6-44,.6-2.86,2.8-10.38,6.92-10.38,6.92l-4.11-54.07c-2.62-7.29-3.65-45.47-3.65-45.47s3.31-28.5,4.68-31.41a5,5,0,0,0-.27-3.47,46.53,46.53,0,0,1-2.5-20.35l1.09-9.9.31-2.78c5.36-2.55,9.47-10.68,9.47-10.68l2.86-5.32,5.26-9.8,2.49-4.64.42.4,3.23,3.11,3.43,3c4.47,4,12.21,11.07,16.2,15.39,3.5,3.8,4.61,18.59,4.93,29.72.21,7.34.09,13.08.09,13.08-3.54,6.19,5.71,55.89,5.71,55.89C1221.06,345.19,1223.68,405.33,1223.68,405.33Z"/><path class="cls-25" d="M1193.68,234.6s-10.73,21.7-9.48,30,4.79,17.59,3.08,19.77a6.23,6.23,0,0,1-5,2.67c-1.71.12-6.28,3.51-6.28,3.88s-4.23.36-8,2.06a47.68,47.68,0,0,1-9.36,2.67s-10.86-.37-11.87.73-2,7.63.12,12.85,4.57,9.11,6.39,9.82,13.35-3.39,22.7-4.36,19.51-8.85,19.51-8.85,11.19-4.26,13.15-11.41-2.4-46.44-2.4-46.44S1202.92,229.63,1193.68,234.6Z"/><path class="cls-25" d="M1192.31,232.78s-10.73,21.71-9.47,30,4.79,17.59,3.07,19.77a6.15,6.15,0,0,1-5,2.67c-1.71.12-6.28,3.52-6.28,3.88s-4.23.37-8,2.06a48.46,48.46,0,0,1-9.36,2.67s-10.86-.37-11.86.73-2.06,7.64.11,12.85,4.57,9.11,6.39,9.82,13.35-3.39,22.71-4.36,19.51-8.86,19.51-8.86,11.18-4.25,13.11-11.39-2.39-46.45-2.39-46.45S1201.55,227.81,1192.31,232.78Z"/><path class="cls-11" d="M1193.34,233.51s-10.73,21.71-9.47,29.95,4.79,17.58,3.08,19.77a6.15,6.15,0,0,1-5,2.67c-1.72.12-6.29,3.52-6.29,3.87s-4.22.37-8,2.07a47.67,47.67,0,0,1-9.35,2.67s-10.86-.37-11.87.72-2.06,7.65.11,12.86,4.57,9.11,6.39,9.82,13.35-3.4,22.7-4.37,19.52-8.85,19.52-8.85,11.18-4.25,13.14-11.4-2.37-46.44-2.37-46.44S1202.58,228.56,1193.34,233.51Z"/><path class="cls-12" d="M1193.11,291.74s-8.58-1.83-5.59,1.21,3,5.7,6.62,5.58S1193.11,291.74,1193.11,291.74Z"/><path class="cls-12" d="M1207.59,357.08s-3.87,2.79,3.54,9.22S1207.59,357.08,1207.59,357.08Z"/><path class="cls-12" d="M1200.2,380c0,.37-1.37,13.37,3.76,16.62S1200.2,380,1200.2,380Z"/><path class="cls-23" d="M1118.72,278.12c-4.14.15-13.08,1.5-8.45,10.69,4.1,8.13,11,2.69,14.86-1.43A15.47,15.47,0,0,0,1118.72,278.12Z"/><path class="cls-23" d="M1125.19,287.31l.17-.19Z"/><path class="cls-12" d="M1192,221.88c-4.39,3.19-8.07,5.88-8.79,6.44-2,1.55-5.71,10.64-8.13,15.28-1.93,3.74-8.19,4.7-10.55,4.94l.31-2.78c5.36-2.55,9.47-10.68,9.47-10.68l10.61-19.77,3.65,3.53Z"/><path class="cls-26" d="M1192,221.52c-4.39,3.19-8.07,5.88-8.79,6.44-2,1.54-5.71,10.64-8.13,15.28-1.93,3.73-8.19,4.69-10.55,4.93l.31-2.78c5.36-2.55,9.47-10.67,9.47-10.67L1184.89,215l3.65,3.52S1189.91,219.67,1192,221.52Z"/><path class="cls-23" d="M1183.52,206a18.74,18.74,0,0,1-3,10.21c-5.3,8.2-15.86,10.28-23.57,4.64s-9.67-16.86-4.36-25.06a16.33,16.33,0,0,1,23.57-4.63A18.37,18.37,0,0,1,1183.52,206Z"/><path class="cls-12" d="M1213.1,266.63a15.76,15.76,0,0,1-5.47-6.24c-1-2-1.58-4.32-3.21-5.74-1.47-1.28-3.43-1.59-5.26-2.16-6-1.89-11.05-7.72-11.24-14.38-.09-3.13.83-6.26.41-9.37a10.81,10.81,0,0,0-1.91-4.82,15.73,15.73,0,0,0-1.65-1.89c-.8-.81-1.64-1.58-2.37-2.43a9.38,9.38,0,0,1-1.2-1.73,8.38,8.38,0,0,1-.66-1.61c-1.14-3.72-.1-8.13-1.36-11.89l-.07-.21c-.47-1.33-1.44-2.67-2.78-2.77s-2.49,1.08-3.77,1.61c-2.68,1.1-5.58-.78-7.81-2.7s-4.76-4.11-7.6-3.69c-1.88.29-3.36,1.65-5.09,2.35a6.5,6.5,0,0,1-1.21.37c3.48-9.23,13.35-13.71,22-10a18,18,0,0,1,10.64,16.73,19,19,0,0,1-.37,3.76l.09.24c.67,1.83,1.41,3.7,2.07,5.31l3.23,3.11,3.43,3c4.47,4,12.21,11.07,16.2,15.39C1211.67,240.71,1212.77,255.5,1213.1,266.63Z"/><path class="cls-27" d="M1151.86,187.86c.81-1.76,1.22-3.74,2.2-5.42a12.21,12.21,0,0,1,6.51-4.93c6.71-2.46,20.9-6,25.14,0a13.19,13.19,0,0,0,2.68,3.41,19.94,19.94,0,0,0,2.91,1.39c2.7,1.35,4.43,4.29,5.35,7.29s1.19,6.22,1.87,9.31a72.23,72.23,0,0,0,3.88,11.46c1.78,4.41,3.67,9,7.1,12.1,4.68,4.25,5.71,10.27,10.06,14.94,5.14,5.54,5,14.68,2.32,21.94a6.27,6.27,0,0,0-.6,3,5.82,5.82,0,0,0,1.51,2.75l2.81,3.37c-6.65,1.71-14.18-2-17.27-8.47-1-2-1.59-4.31-3.23-5.74-1.46-1.28-3.43-1.58-5.25-2.15-6-1.89-11-7.73-11.24-14.39-.09-3.13.83-6.26.41-9.35a10.65,10.65,0,0,0-1.91-4.86c-1.58-2.18-3.95-3.65-5.23-6.08-2.16-4.06-.52-9.34-2.08-13.7-.48-1.34-1.44-2.67-2.78-2.78s-2.49,1.08-3.78,1.61c-2.67,1.11-5.56-.77-7.8-2.7s-4.75-4.11-7.6-3.68c-1.88.28-3.36,1.64-5.09,2.35-1.28.53-3.88,1-5-.15C1145.39,196,1150.87,190,1151.86,187.86Z"/><path class="cls-12" d="M1209.91,258c-1-2-1.58-4.32-3.22-5.74-1.46-1.27-3.43-1.58-5.26-2.15-6-1.89-11-7.73-11.24-14.39-.09-3.13.83-6.26.42-9.36a10.7,10.7,0,0,0-1.92-4.83c-1.57-2.18-3.94-3.64-5.22-6.07-2.16-4.06-.52-9.34-2.08-13.71-.48-1.33-1.44-2.66-2.78-2.77s-2.5,1.09-3.78,1.61c-2.67,1.11-5.57-.77-7.8-2.69s-4.76-4.12-7.6-3.69c-1.88.29-3.37,1.65-5.09,2.35-1.28.52-3.88,1-5-.15-2.36-2.43,3.12-8.41,4.11-10.56.81-1.78,1.22-3.75,2.2-5.43,0-.09.11-.18.17-.27a9.37,9.37,0,0,0-1.88,2.27c-1,1.68-1.39,3.64-2.2,5.42-1,2.15-6.47,8.16-4.11,10.57,1.14,1.15,3.71.68,5,.16,1.72-.72,3.21-2.08,5.09-2.36,2.86-.43,5.38,1.77,7.61,3.69s5.14,3.8,7.8,2.69c1.28-.53,2.4-1.72,3.77-1.61s2.29,1.44,2.79,2.78c1.56,4.36-.09,9.64,2.08,13.7,1.28,2.39,3.65,3.88,5.22,6.08a10.65,10.65,0,0,1,1.91,4.86c.42,3.09-.5,6.22-.41,9.35.19,6.68,5.23,12.5,11.24,14.39,1.82.57,3.79.88,5.26,2.15,1.64,1.43,2.28,3.74,3.22,5.74,3.1,6.48,10.62,10.18,17.28,8.47l-1.33-1.59A15.88,15.88,0,0,1,1209.91,258Z"/><path class="cls-12" d="M1170.52,230.23c-.75,1.22-2.9,7.44-4.68,12.87-1.68-.69-3.2-5.11-3.2-5.11l8.93-13.5C1172.48,225.83,1171.88,228.05,1170.52,230.23Z"/><path class="cls-26" d="M1170.86,229.87c-.75,1.21-2.89,7.43-4.68,12.86-1.68-.68-3.2-5.1-3.2-5.1l8.93-13.5C1172.82,225.46,1172.22,227.69,1170.86,229.87Z"/><path class="cls-28" d="M1119,291.92l-5-16.59a1.55,1.55,0,0,1,.94-1.94h0a1.43,1.43,0,0,1,1.82,1l5,16.57-.49,3.47Z"/><path class="cls-29" d="M1114.48,273.88h0a1.44,1.44,0,0,1,1.83,1l5,16.57-.37,2.6.36.4.49-3.47-5-16.57a1.44,1.44,0,0,0-1.83-1h0a1.51,1.51,0,0,0-.76.61A1.23,1.23,0,0,1,1114.48,273.88Z"/><polygon class="cls-30" points="1118.96 291.92 1121.73 290.99 1121.33 293.83 1121.24 294.46 1120.43 293.56 1118.96 291.92"/><path class="cls-31" d="M1120.43,293.56a.55.55,0,0,1,.18-.16.22.22,0,0,1,.27,0,1.29,1.29,0,0,1,.09.16.49.49,0,0,0,.36.25l-.09.61Z"/><path class="cls-23" d="M1114,281.23s9.92-.06,7.59,4.43-6,5-6,5Z"/><path class="cls-14" d="M1052.24,79h-.43c-17,0-32.13,9.59-40.81,23.75C1002.33,88.58,987.24,79,970.19,79h-.43c-26.63.27-48.1,23.29-48.11,51.6,0,16.9,7,40.87,20.53,60.59C968,228.76,1011,261.64,1011,261.64s43-32.87,68.81-70.46c13.58-19.72,20.54-43.69,20.54-60.59C1100.33,102.28,1078.87,79.27,1052.24,79Zm-6.13,115.86c-4,0-9-7.58-9-7.58h-9.66a3.33,3.33,0,0,1-3.11-2.39l-3.21-10.27L1011,212.32a3.33,3.33,0,0,1-3.15,2.52h-.21a3.32,3.32,0,0,1-3-2.89l-10.47-66.89-7.64,39.58a3.3,3.3,0,0,1-3.17,2.63H969.51s-3.26-.37-3.33-2.24a3.31,3.31,0,0,1,3.06-3.54.77.77,0,0,0,.27-.12h12.55l10.19-50.08a3.08,3.08,0,0,1,3.73-2.42,3.2,3.2,0,0,1,2.33,2.69l10.05,64.21,8.57-31.75a3.06,3.06,0,0,1,2.88-2.34h.92a3.09,3.09,0,0,1,2.92,2.25l5.46,17.44H1037s7.06-8.1,12.09-6.35a10.34,10.34,0,0,1,6.1,12.86,9.64,9.64,0,0,1-9.09,7Z"/></g></g></svg>